<?xml version="1.0" standalone="no"?>
<!DOCTYPE svg PUBLIC "-//W3C//DTD SVG 20010904//EN"
 "http://www.w3.org/TR/2001/REC-SVG-20010904/DTD/svg10.dtd">
<svg version="1.0" xmlns="http://www.w3.org/2000/svg"
 width="260.000000pt" height="260.000000pt" viewBox="0 0 260.000000 260.000000"
 preserveAspectRatio="xMidYMid meet">
<metadata>
Created by potrace 1.14, written by Peter Selinger 2001-2017
</metadata>
<g transform="translate(0.000000,260.000000) scale(0.100000,-0.100000)"
fill="#000000" stroke="none">
<path d="M1179 2577 c-2 -3 -26 -7 -54 -10 -454 -50 -883 -403 -1036 -854 -51
-151 -63 -233 -63 -413 0 -180 13 -265 63 -413 123 -362 427 -670 783 -793 82
-28 74 -26 183 -50 122 -27 380 -25 510 3 503 111 881 493 991 1003 22 100 26
330 8 445 -46 302 -212 596 -448 790 -160 132 -355 226 -566 271 -68 14 -360
31 -371 21z"/>
</g>
</svg>
